<svg width="323" height="239" viewBox="0 0 323 239" fill="none" xmlns="http://www.w3.org/2000/svg">
<g clip-path="url(#clip0_105_169)">
<path d="M61.1102 89.7599C61.2402 89.6699 61.3702 89.5799 61.5002 89.4899C61.0602 88.8699 60.7102 88.1599 60.1802 87.6499C55.2502 82.9299 49.5802 79.2599 43.2602 76.7899C36.8402 74.2799 30.3502 71.8499 23.7102 70.0099C17.6602 68.3299 11.3902 67.3899 5.18023 66.3599C3.68023 66.1099 1.80023 65.6199 0.360234 67.5099C7.39023 69.2399 14.5602 70.2999 21.5002 72.1799C28.5002 74.0799 35.4702 76.3299 42.0802 79.2799C48.6702 82.2199 54.7902 86.2199 61.1102 89.7499V89.7599ZM61.4402 60.9099C59.9902 54.8899 23.1102 42.2699 11.2402 43.3099C12.0102 44.0799 12.4002 44.7899 12.9602 44.9699C14.4902 45.4499 16.1102 45.6399 17.6702 46.0399C23.8202 47.6199 29.9602 49.1999 36.1002 50.8399C43.5002 52.8199 50.8402 54.9599 57.6002 58.7199C58.7102 59.3399 59.8102 59.9799 61.4502 60.9099H61.4402ZM51.2202 106.71C51.2902 106.5 51.3702 106.28 51.4402 106.07C50.6902 105.53 50.0002 104.86 49.1802 104.46C43.1502 101.53 36.6002 100.33 30.1102 98.9999C24.5102 97.8499 18.8902 96.7299 13.2402 95.8799C9.35023 95.2999 5.39023 95.1699 1.45023 94.9399C0.980234 94.9099 0.480234 95.5599 -0.00976562 95.8899C0.490234 96.3099 0.940234 97.0099 1.50023 97.1099C3.17023 97.4099 4.90023 97.3899 6.58023 97.6399C12.7002 98.5099 18.8402 99.3099 24.9302 100.38C33.2602 101.83 41.6702 103.04 49.5202 106.5C50.0202 106.72 50.6402 106.65 51.2102 106.72L51.2202 106.71ZM97.8002 233.51C97.6802 233.4 97.5502 233.29 97.4302 233.18C94.2602 233.72 91.1202 234.5 87.9302 234.76C82.0502 235.24 76.1302 235.4 70.2402 235.74C69.6802 235.77 69.1402 236.12 68.6002 236.32C69.1702 236.57 69.7502 237.06 70.3102 237.04C76.5902 236.79 82.8802 236.61 89.1402 236.1C91.7302 235.89 94.2702 234.98 96.8102 234.33C97.1902 234.23 97.4802 233.78 97.8202 233.5L97.8002 233.51ZM258.03 233.57C257.25 233.07 256.77 232.54 256.47 232.62C251.04 234.13 245.59 235.59 240.75 238.66C241.46 238.83 242.1 238.77 242.69 238.56C245.5 237.58 248.28 236.55 251.09 235.58C251.53 235.43 252.16 235.3 252.51 235.5C255.82 237.45 259.39 237.06 263.07 236.61C262.51 235.89 261.82 235.39 261.09 235.3C259.22 235.09 257.33 235.06 255.45 234.96C255.45 234.72 255.44 234.48 255.43 234.24C256.11 234.06 256.79 233.89 258.03 233.57ZM91.1602 218.39C91.1802 218.09 91.2002 217.8 91.2302 217.5C90.7602 217.36 90.2902 217.1 89.8202 217.11C84.5602 217.23 79.3002 217.37 74.0402 217.58C73.5302 217.6 73.0502 218.08 72.4802 218.39H91.1602ZM75.5602 229.42C77.8502 231.13 95.2402 229.42 96.9602 227.16C89.8302 227.91 82.4802 228.69 75.5602 229.42ZM175.92 6.64991C174.85 4.61991 157.3 -0.400091 155.06 0.879909C162.03 2.80991 169.12 4.76991 175.92 6.64991ZM173.37 16.3399C173.46 16.0299 173.56 15.7099 173.65 15.3999C168.23 13.3799 162.81 11.3599 157.39 9.33991C157.28 9.62991 157.16 9.91991 157.05 10.2099C162.49 12.2499 167.93 14.2899 173.37 16.3299V16.3399ZM246.43 226.8C246.44 226.44 246.45 226.08 246.46 225.71C241.87 225.22 237.29 224.48 232.63 224.96L232.57 225.83C237.19 226.15 241.82 226.47 246.44 226.79L246.43 226.8ZM237.67 228.27C237.64 228.64 237.6 229 237.57 229.37C242.09 229.78 246.54 230.89 251.11 230.69C251.13 230.42 251.16 230.16 251.18 229.89C246.68 229.35 242.18 228.81 237.67 228.27ZM171.4 25.5499C169.43 23.3399 159.78 19.7799 157.81 20.5499C162.37 22.2299 166.72 23.8299 171.4 25.5499Z" fill="#FEFEFE"/>
<path d="M69.9402 119.97V59.5101C74.1002 59.7701 78.5402 60.0501 82.9802 60.3301C83.2802 60.3501 83.5802 60.3701 83.8802 60.3801C89.2902 60.5301 94.7102 60.6401 100.12 60.8501C106.79 61.1101 113.45 61.4001 120.11 61.7601C125.41 62.0401 130.69 62.4501 136.13 62.8001C137.22 72.4201 136.59 82.1301 136.69 91.8301C136.79 101.57 136.71 111.32 136.71 121.39H156.71C156.57 120 156.27 118.42 156.26 116.84C156.21 108.14 156.02 99.4301 156.31 90.7501C156.51 84.8301 157.31 78.9201 158.08 73.0401C158.61 68.9801 159.06 64.7801 160.47 60.9901C161.87 57.2301 164.09 53.6401 166.56 50.4401C170.02 45.9601 174.04 41.9201 177.82 37.6901C178.06 37.4201 178.49 36.8801 178.45 36.8401C176.57 34.8801 178.49 31.7401 176.37 29.9501C175.03 28.8101 175.07 27.4301 175.45 26.0701C176.69 21.6601 177.61 17.0701 179.52 12.9501C181.66 8.33012 183.61 3.11013 189.02 1.16012C191.45 0.280125 194.27 -0.129875 196.83 0.100125C200.82 0.460125 204.79 1.37013 208.68 2.39013C212.3 3.34013 215.15 5.63012 217.07 8.86012C219.35 12.7001 221.53 16.6401 221.63 21.2701C221.71 24.9401 220.8 25.5901 217.42 24.4901C216.95 24.3401 216.49 24.1401 215.77 23.8601C215.6 27.1401 215.28 30.1901 215.34 33.2401C215.38 35.0901 214.86 36.4001 213.44 37.4901C210.05 40.1001 206.68 42.7301 203.29 45.3401C202.95 45.6001 202.58 45.8801 202.17 46.0101C200.17 46.6801 198.89 47.9801 198.48 50.4101C201.09 51.3401 203.78 52.3701 206.52 53.2501C210.89 54.6601 215.28 55.9901 219.67 57.3001C220.51 57.5501 221.42 57.6801 222.29 57.6401C229.4 57.3601 236.34 58.6001 243.3 59.8101C244.78 60.0701 246.56 59.1801 248.09 58.5301C256.41 54.9901 268.2 56.6301 274.34 63.3601C278.1 67.4801 279.52 73.1801 277.61 76.8901C275.41 81.1601 271.57 83.3801 267.24 84.3601C262.49 85.4301 257.56 85.7101 252.66 86.3301C254.82 93.4201 257.12 100.85 259.33 108.31C263.45 122.21 267.51 136.13 271.61 150.04C272.16 151.92 272.33 154.45 273.62 155.41C274.91 156.37 277.38 155.81 279.34 155.77C288.2 155.58 296.53 157.73 304.57 161.29C310.96 164.12 316.54 168.11 322.05 173.22C315.88 176.42 309.97 179.49 304.05 182.56C314.74 196.05 315.84 210.45 305.15 224.41C297.37 234.57 286.08 238.19 273.56 235.47C259.73 232.47 251.65 223.29 248.64 209.38C245.18 211.05 241.69 212.73 238.21 214.44C235.72 215.66 235 215.31 234.84 212.5C234.72 210.32 234.82 208.13 234.82 205.62H157.26C156.16 213.08 152.59 219.57 146.86 224.89C141.13 230.2 134.46 233.21 126.59 233.99C119.6 234.69 113.04 233.49 107.04 230.18C97.7002 225.02 91.5002 217.25 89.4602 206.54C89.2402 205.38 88.8002 204.79 87.4402 204.81C81.2302 204.89 75.0202 204.7 68.8202 204.92C66.4302 205 65.8102 203.59 65.4302 201.98C64.6402 198.62 65.2102 195.29 66.1402 192C68.4802 183.75 73.1002 176.73 78.2302 170.06C81.8102 165.41 85.5402 160.79 89.7902 156.76C95.3402 151.49 101.47 146.82 107.3 141.93C105.49 141.73 103.35 141.41 101.2 141.27C95.8302 140.92 90.4402 140.68 85.0702 140.34C78.6702 139.93 72.2702 139.47 65.8702 138.94C65.2302 138.89 64.4302 138.39 64.0602 137.86C60.9202 133.31 58.9702 128.44 60.3802 122.77C61.0502 120.08 64.0902 118.44 66.8102 119.25C67.9002 119.57 69.0202 119.78 69.9102 119.99L69.9402 119.97ZM190.83 73.0001C189.23 79.0301 188.05 85.3701 188.46 91.9701C188.86 98.2201 190.83 103.84 194.52 108.85C200.24 116.6 206.16 124.21 211.72 132.06C215.08 136.8 217.93 141.95 217.49 148.07C217.3 150.73 216.49 153.38 215.78 155.98C213.72 163.57 211.53 171.13 209.48 178.73C209.05 180.31 209.56 181.71 211.05 182.65C214.11 184.6 215.7 187.53 216.33 190.55C222.44 173.4 230.74 157.48 247.3 147.57C244.83 139.86 242.31 132.04 239.81 124.21C237.53 117.06 234.18 110.25 233.8 102.53C233.54 97.1501 235.21 92.6701 238.83 88.8801C239.93 87.7301 240.05 86.8801 239.64 85.3201C238.73 81.8401 238.3 78.2301 237.63 74.4801C237.47 74.5101 236.77 74.6801 236.06 74.7401C232.07 75.1101 228.07 75.5401 224.07 75.7301C223.43 75.7601 222.55 74.8101 222.12 74.1101C221.54 73.1701 221.21 72.3101 220.1 71.5901C217.74 70.0601 215.83 71.3001 213.85 72.0101C206.28 74.7301 198.64 74.5801 190.79 72.9901L190.83 73.0001ZM296.19 204.2C295.94 199.29 294.01 194.72 290.5 190.85C290.06 190.36 288.86 189.99 288.33 190.24C281.73 193.35 275.17 196.56 268.67 199.86C268.13 200.14 267.61 201.47 267.81 202.06C269.98 208.27 273.83 213.08 280.06 215.64C283.94 217.23 287.89 217.33 291.37 214.76C294.71 212.29 296.17 208.71 296.19 204.2ZM183.11 147.28C179.82 152.48 177.48 158.05 176.28 164.02C175.45 168.13 174.54 172.32 174.54 176.48C174.54 181.98 176.38 187.09 179.9 191.51C181.55 193.58 184.16 194.24 186.19 193.07C185.58 189.77 184.66 186.64 184.48 183.46C183.98 174.81 184.63 166.26 187.78 158.05C188.04 157.37 188.04 156.37 187.72 155.74C186.28 152.89 184.68 150.12 183.11 147.28ZM105.9 205.1C107.19 212.29 113.7 217.31 120.44 217.99C129.38 218.9 136.91 212.37 138.42 205.1H105.9ZM271.28 79.7701C277.48 75.8901 276.55 70.1601 272.35 65.8001C270.1 70.3301 269.67 74.9501 271.28 79.7701Z" fill="black"/>
<path d="M61.1094 89.7602C54.7894 86.2302 48.6694 82.2302 42.0794 79.2902C35.4694 76.3402 28.4894 74.0902 21.4994 72.1902C14.5494 70.3102 7.38938 69.2402 0.359375 67.5202C1.79938 65.6202 3.67937 66.1202 5.17937 66.3702C11.3894 67.4002 17.6594 68.3402 23.7094 70.0202C30.3394 71.8602 36.8394 74.2902 43.2594 76.8002C49.5894 79.2702 55.2494 82.9502 60.1794 87.6602C60.7194 88.1702 61.0694 88.8802 61.4994 89.5002C61.3694 89.5902 61.2394 89.6802 61.1094 89.7702V89.7602Z" fill="black"/>
<path d="M61.4405 60.9097C59.8005 59.9797 58.7005 59.3397 57.5905 58.7197C50.8405 54.9697 43.4905 52.8197 36.0905 50.8397C29.9605 49.1997 23.8105 47.6197 17.6605 46.0397C16.1005 45.6397 14.4805 45.4397 12.9505 44.9697C12.3905 44.7997 12.0005 44.0797 11.2305 43.3097C23.1005 42.2597 59.9805 54.8897 61.4305 60.9097H61.4405Z" fill="black"/>
<path d="M51.22 106.71C50.65 106.64 50.03 106.71 49.53 106.49C41.68 103.03 33.28 101.83 24.94 100.37C18.85 99.3097 12.71 98.5097 6.59 97.6297C4.9 97.3897 3.18 97.3997 1.51 97.0997C0.95 96.9997 0.5 96.2997 0 95.8797C0.49 95.5497 0.99 94.8997 1.46 94.9297C5.4 95.1597 9.36 95.2797 13.25 95.8697C18.9 96.7197 24.52 97.8397 30.12 98.9897C36.61 100.33 43.16 101.52 49.19 104.45C50.01 104.85 50.7 105.51 51.45 106.06C51.38 106.27 51.3 106.49 51.23 106.7L51.22 106.71Z" fill="black"/>
<path d="M97.8001 233.51C97.4701 233.8 97.1701 234.24 96.7901 234.34C94.2501 234.99 91.7101 235.9 89.1201 236.11C82.8601 236.61 76.5701 236.8 70.2901 237.05C69.7301 237.07 69.1501 236.58 68.5801 236.33C69.1301 236.13 69.6701 235.78 70.2201 235.75C76.1201 235.41 82.0301 235.25 87.9101 234.77C91.1001 234.51 94.2501 233.73 97.4101 233.19C97.5301 233.3 97.6601 233.41 97.7801 233.52L97.8001 233.51Z" fill="black"/>
<path d="M258.03 233.57C256.79 233.89 256.11 234.07 255.43 234.24C255.43 234.48 255.44 234.72 255.45 234.96C257.33 235.06 259.22 235.09 261.09 235.3C261.82 235.38 262.5 235.89 263.07 236.61C259.39 237.05 255.82 237.45 252.51 235.5C252.17 235.3 251.53 235.43 251.09 235.58C248.28 236.55 245.49 237.58 242.69 238.56C242.1 238.77 241.46 238.83 240.75 238.66C245.6 235.59 251.05 234.13 256.47 232.62C256.77 232.54 257.24 233.07 258.03 233.57Z" fill="black"/>
<path d="M91.1605 218.39H72.4805C73.0405 218.09 73.5305 217.6 74.0405 217.58C79.3005 217.37 84.5605 217.23 89.8205 217.11C90.2905 217.1 90.7605 217.36 91.2305 217.5C91.2105 217.8 91.1905 218.09 91.1605 218.39Z" fill="black"/>
<path d="M75.5605 229.42C82.4905 228.69 89.8305 227.92 96.9605 227.16C95.2405 229.42 77.8505 231.12 75.5605 229.42Z" fill="black"/>
<path d="M175.921 6.64991C169.121 4.76991 162.031 2.80991 155.061 0.879909C157.301 -0.400091 174.851 4.61991 175.921 6.64991Z" fill="black"/>
<path d="M173.371 16.3406C167.931 14.3006 162.491 12.2606 157.051 10.2206C157.161 9.93059 157.281 9.64059 157.391 9.35059C162.811 11.3706 168.231 13.3906 173.651 15.4106C173.561 15.7206 173.461 16.0406 173.371 16.3506V16.3406Z" fill="black"/>
<path d="M246.431 226.8C241.811 226.48 237.181 226.16 232.561 225.84L232.621 224.97C237.281 224.49 241.861 225.23 246.451 225.72C246.441 226.08 246.431 226.44 246.421 226.81L246.431 226.8Z" fill="black"/>
<path d="M237.67 228.27C242.17 228.81 246.67 229.35 251.18 229.89C251.16 230.16 251.13 230.42 251.11 230.69C246.55 230.89 242.09 229.78 237.57 229.37C237.6 229 237.64 228.64 237.67 228.27Z" fill="black"/>
<path d="M171.401 25.5502C166.721 23.8302 162.371 22.2202 157.811 20.5502C159.781 19.7802 169.431 23.3502 171.401 25.5502Z" fill="black"/>
</g>
<defs>
<clipPath id="clip0_105_169">
<rect width="322.07" height="238.76" fill="white"/>
</clipPath>
</defs>
</svg>
