<svg width="31" height="24" viewBox="0 0 31 24" fill="none" xmlns="http://www.w3.org/2000/svg">
<path d="M0.897217 0.770508V2.9344C0.897217 8.92116 4.08535 14.1578 8.83148 17.0718V23.852H30.4704V20.9668C30.4704 17.1295 22.7813 15.1964 18.9296 15.1964C18.9296 15.1964 18.6844 15.1964 18.569 15.1964C11.7167 15.1964 5.94629 9.42606 5.94629 2.9344V0.770508M18.9296 0.770508C17.3992 0.770508 15.9315 1.37846 14.8494 2.46061C13.7672 3.54276 13.1593 5.01048 13.1593 6.54088C13.1593 8.07128 13.7672 9.53899 14.8494 10.6211C15.9315 11.7033 17.3992 12.3112 18.9296 12.3112C20.46 12.3112 21.9277 11.7033 23.0099 10.6211C24.092 9.53899 24.7 8.07128 24.7 6.54088C24.7 5.01048 24.092 3.54276 23.0099 2.46061C21.9277 1.37846 20.46 0.770508 18.9296 0.770508Z" fill="#000000"/>
</svg>
