<svg width="322" height="240" viewBox="0 0 322 240" fill="none" xmlns="http://www.w3.org/2000/svg">
<g clip-path="url(#clip0_105_152)">
<path d="M252.48 85.91C253.71 89.95 254.95 93.98 256.15 98.03C259.95 110.89 263.72 123.75 267.51 136.61C269.38 142.96 271.29 149.31 273.16 155.6C291.73 154.36 307.82 160.16 321.98 173.05C315.62 176.27 309.58 179.32 303.44 182.43C310.66 189.54 312.95 198.48 311.93 208.21C311.03 216.68 306.92 223.84 300.23 229.09C290.66 236.6 279.71 238.02 268.5 233.86C257.31 229.71 250.87 220.99 248.46 209.29C243.98 211.44 239.84 213.42 235.2 215.64C234.8 212.14 234.43 208.89 234.05 205.5H157.18C155.43 215.46 150 223.18 141.62 228.76C134.92 233.21 127.28 234.87 119.41 233.91C102.8 231.87 91.4798 220.08 88.7898 204.51H66.5498C63.9598 200.11 64.7898 195.65 66.1098 191.23C68.5398 183.1 73.0898 176.07 78.3398 169.61C83.2898 163.52 88.6998 157.74 94.3298 152.27C98.2698 148.45 102.93 145.38 107.44 141.83C105.93 141.66 104.41 141.45 102.88 141.33C95.1598 140.71 87.4298 140.08 79.6998 139.53C76.2598 139.28 72.8098 139.23 69.3698 139.04C67.8898 138.96 66.3698 138.92 64.9698 138.52C64.2698 138.31 63.6998 137.38 63.2298 136.67C60.4298 132.47 58.9498 127.94 60.3498 122.9C61.3098 119.42 63.4698 118.32 66.9798 119.17C67.8398 119.38 68.7198 119.49 69.4598 119.62V59.38C72.3698 59.59 75.1698 59.78 77.9798 59.98C78.2798 60 78.5798 60 78.8798 60.01C84.5998 60.16 90.3198 60.26 96.0298 60.48C102.39 60.72 108.75 61.07 115.11 61.38C121.32 61.68 127.53 62 133.74 62.27C135.2 62.33 136.25 62.43 136.26 64.42C136.33 77.25 136.54 90.08 136.66 102.92C136.72 108.82 136.66 114.71 136.66 120.97H155.75C155.75 114.33 155.65 107.5 155.78 100.68C155.88 95.67 156.27 90.67 156.56 85.66C156.71 83.05 156.8 80.43 157.12 77.85C158.06 70.22 158.61 62.43 162.6 55.6C164.37 52.57 166.65 49.82 168.92 47.11C171.65 43.85 174.61 40.77 177.46 37.6C177.69 37.34 178.05 36.87 177.96 36.68C176.89 34.38 177.8 31.59 175.93 29.41C175.25 28.61 175.04 26.92 175.34 25.85C176.78 20.82 178.03 15.66 180.22 10.95C181.88 7.36 183.62 3.38 187.68 1.5C188.92 0.929998 190.22 0.149998 191.51 0.0899976C198.58 -0.230002 205.58 0.229998 211.93 3.82C216.01 6.12 218.09 10.09 219.75 14.24C220.91 17.13 221.84 20.07 221.22 23.35C220.88 25.13 220.2 25.26 218.8 24.74C217.84 24.38 216.85 24.12 215.25 23.61C215.25 26.72 215.15 29.68 215.28 32.63C215.38 34.81 214.81 36.35 212.89 37.67C209.44 40.05 206.2 42.75 202.88 45.33C202.64 45.51 202.44 45.82 202.18 45.88C199.81 46.43 198.62 48.05 198.18 50.4C204.32 52.37 210.54 54.42 216.8 56.35C218.39 56.84 220.09 57.06 221.75 57.25C227.5 57.9 233.26 58.38 239 59.11C242.48 59.55 245.59 59.15 249.04 58.03C258.26 55.03 267.1 56.08 274.24 63.41C277.87 67.14 279.93 73.13 276.62 77.98C274.56 81 271.67 82.96 268.34 83.79C264.07 84.86 259.63 85.26 255.26 85.85C254.42 85.96 253.53 85.63 252.66 85.51C252.49 85.54 252.32 85.56 252.15 85.59C252.26 85.7 252.36 85.81 252.47 85.92L252.48 85.91ZM237.53 74.45C233.45 74.91 229.14 75.54 224.81 75.78C223.82 75.83 222.29 74.78 221.83 73.83C220.61 71.31 218.47 69.97 215.93 71.01C208.03 74.26 199.98 75.07 191.65 72.99C191.29 72.9 190.42 73.42 190.35 73.77C189.12 80.05 187.6 86.21 188.34 92.82C189.1 99.6 191.56 105.44 195.74 110.56C202.49 118.83 209.1 127.2 214.31 136.54C216.91 141.21 218.45 146.11 216.71 151.66C214.48 158.82 212.74 166.14 210.6 173.34C209.37 177.51 208.14 181.3 212.93 184.36C214.59 185.42 215.34 187.89 216.39 189.55C217.98 185.59 219.32 181.26 221.42 177.33C224.27 171.99 227.39 166.73 230.98 161.87C234.97 156.45 239.69 151.55 245.78 148.39C247.17 147.67 247.17 147.34 246.7 146.02C244.92 140.93 243.35 135.78 241.69 130.65C239.38 123.52 237.03 116.39 234.73 109.26C233.27 104.74 232.61 100.06 234.45 95.61C235.75 92.48 237.92 89.71 239.61 86.93C238.93 82.85 238.22 78.6 237.53 74.47V74.45ZM83.6198 68.16C83.5798 68.8 83.5298 69.17 83.5398 69.53C83.6898 76.91 83.8798 84.3 83.9698 91.68C84.0398 97.65 83.9398 103.63 84.0398 109.61C84.0498 110.48 84.7198 112.06 85.1698 112.09C88.3698 112.31 91.5898 112.21 94.8898 112.21C94.8898 109.23 94.8298 106.59 94.9098 103.95C94.9798 101.28 95.1898 98.62 95.3398 95.83C100.99 96.38 106.3 96.91 111.77 97.44V112.54H122.75V68.96H111.21V88.15C105.82 87.62 100.65 87.11 95.3498 86.58C95.3498 81.14 95.2898 75.78 95.3898 70.43C95.4198 68.7 94.6698 68.16 93.1498 68.17C90.0598 68.18 86.9598 68.17 83.6398 68.17L83.6198 68.16ZM288.98 189.41C281.51 193.12 274.25 196.72 267.18 200.23C268.37 205.37 271.21 209.23 274.92 212.56C277.84 215.18 281.42 216.76 285.09 216.56C292.32 216.17 296.06 211.09 295.98 204.11C295.91 198.43 293.49 193.31 288.97 189.41H288.98ZM186.4 192.81C186.05 191.87 185.49 190.88 185.32 189.83C184.5 184.73 183.77 179.7 184.24 174.42C184.77 168.5 185.98 162.83 187.74 157.21C187.88 156.75 187.78 156.09 187.55 155.66C186.06 152.85 184.51 150.09 182.91 147.18C182.21 148.36 181.38 149.54 180.77 150.81C177.69 157.24 175.64 163.93 174.76 171.07C174.02 177.06 174.61 182.6 177.52 187.94C179.48 191.53 181.55 194.58 186.4 192.82V192.81ZM105.52 204.92C108.08 213.91 114.72 218.07 122.05 217.92C129.62 217.76 136.01 213.46 138.3 204.92H105.52ZM270.89 79.43C276.8 76.75 276.93 70.66 272.2 65.59C269.68 70 269.91 74.67 270.89 79.43Z" fill="black"/>
<path d="M1.90844 65.4805C9.36844 66.9105 16.7384 67.9405 23.8984 69.7805C32.5684 72.0105 41.0784 74.9705 48.8284 79.5805C52.9084 82.0105 56.5784 85.1305 60.3784 88.0105C60.7584 88.3005 60.7784 89.0505 60.9684 89.5805C60.4184 89.4405 59.7884 89.4205 59.3284 89.1305C54.9984 86.4105 50.8684 83.3005 46.3284 80.9905C41.6284 78.5905 36.6284 76.6605 31.5884 75.0605C24.9284 72.9505 18.1384 71.2405 11.3384 69.6005C8.20844 68.8405 4.92844 68.6705 1.73844 68.1305C1.23844 68.0505 0.838437 67.3905 0.398438 67.0005C0.848437 66.5505 1.30844 66.0905 1.90844 65.4905V65.4805Z" fill="black"/>
<path d="M11.8303 44.8003V42.5703C14.7403 43.0903 17.5803 43.3903 20.3003 44.1303C29.9203 46.7603 39.5803 49.2803 49.0503 52.3703C53.0003 53.6603 56.5303 56.2303 60.1903 58.3203C60.6303 58.5703 60.7003 59.4703 60.9403 60.0603C60.4003 59.9203 59.7903 59.9003 59.3303 59.6303C52.8203 55.7803 45.7603 53.3003 38.5003 51.3603C31.8803 49.5903 25.2603 47.8503 18.6203 46.1703C16.4303 45.6103 14.1803 45.2603 11.8203 44.7903L11.8303 44.8003Z" fill="black"/>
<path d="M50.7193 106.34C49.8493 106.18 48.9593 106.07 48.0993 105.84C42.5393 104.35 37.0393 102.6 31.4293 101.38C25.3293 100.05 19.1493 99.13 12.9793 98.18C9.82935 97.69 6.62935 97.54 3.45935 97.24C3.15935 97.21 2.78935 97.35 2.55935 97.21C1.64935 96.69 -0.300653 97.18 0.0393465 95.44C0.359347 93.83 1.69935 94.78 2.75935 94.91C6.14935 95.33 9.58935 95.39 12.9593 95.91C19.3493 96.89 25.7293 97.91 32.0493 99.25C36.8893 100.28 41.6393 101.74 46.3693 103.18C48.0093 103.68 49.4993 104.7 51.0593 105.49C50.9394 105.77 50.8293 106.06 50.7093 106.34H50.7193Z" fill="black"/>
<path d="M97.7091 233.9C95.3191 234.53 92.9691 235.49 90.5391 235.72C83.8691 236.36 77.1691 236.7 70.4691 237.15C70.0191 237.18 69.5091 237.28 69.1291 237.11C68.7291 236.93 68.4491 236.47 68.1191 236.14C68.4491 235.87 68.7391 235.48 69.1091 235.38C69.5991 235.25 70.1591 235.35 70.6891 235.34C75.4891 235.19 80.3091 235.21 85.0891 234.83C88.5891 234.55 92.0491 233.73 95.5291 233.2C96.1991 233.1 96.8991 233.19 97.5891 233.19C97.6291 233.43 97.6691 233.67 97.7091 233.92V233.9Z" fill="black"/>
<path d="M251.768 234.95C248.408 236.23 244.748 237.63 241.088 239.03C240.938 238.91 240.798 238.79 240.648 238.67C240.968 238.24 241.198 237.58 241.618 237.43C246.108 235.78 250.628 234.17 255.168 232.66C255.818 232.44 256.668 232.81 257.418 233.33L253.198 234.56C256.508 235.03 259.948 234.46 262.968 236.3C259.268 236.35 255.408 237.65 251.778 234.95H251.768Z" fill="black"/>
<path d="M97.6397 227.33C89.8497 229.43 82.5097 230.74 74.9297 228.88C82.1697 228.88 89.3497 228.36 96.4097 226.73C96.6397 226.68 96.9497 226.98 97.6397 227.33Z" fill="black"/>
<path d="M91.0389 217.47C87.2689 219.13 74.2689 219.51 72.3789 217.88C73.2589 217.6 73.9689 217.2 74.6789 217.19C79.8189 217.14 84.9689 217.16 90.1089 217.18C90.3489 217.18 90.5889 217.32 91.0389 217.47Z" fill="black"/>
<path d="M154.359 0.610433C159.789 0.250433 173.309 4.29043 175.819 6.43043C168.869 4.54043 161.609 2.58043 154.359 0.610433Z" fill="black"/>
<path d="M156.34 9.9799C159.04 9.3599 172.13 14.2299 173.56 16.2799C167.85 14.1899 162.28 12.1499 156.34 9.9799Z" fill="black"/>
<path d="M232.16 224.33C236.77 224.7 241.38 225.06 246.63 225.48C245.81 226.08 245.32 226.72 244.98 226.65C240.74 225.73 236.2 226.77 232.07 225.14C232.1 224.87 232.13 224.6 232.16 224.33Z" fill="black"/>
<path d="M237.319 229.25C237.609 228.75 237.839 228.1 237.989 228.12C242.249 228.63 246.489 229.2 250.739 229.76L250.619 230.78C246.319 230.28 242.019 229.79 237.309 229.25H237.319Z" fill="black"/>
<path d="M158.329 19.6602C162.479 21.1802 166.629 22.7102 170.779 24.2302C170.679 24.5102 170.569 24.7902 170.469 25.0702C166.329 23.5202 162.189 21.9702 158.039 20.4202C158.129 20.1702 158.229 19.9102 158.319 19.6602H158.329Z" fill="black"/>
<path d="M83.6195 68.1604C86.9495 68.1604 90.0395 68.1604 93.1295 68.1604C94.6595 68.1604 95.4095 68.6904 95.3695 70.4204C95.2695 75.7804 95.3295 81.1404 95.3295 86.5704C100.64 87.0904 105.8 87.6004 111.19 88.1404V68.9504H122.73V112.53H111.75V97.4304C106.29 96.8904 100.97 96.3704 95.3195 95.8204C95.1695 98.6104 94.9595 101.27 94.8895 103.94C94.8195 106.58 94.8695 109.23 94.8695 112.2C91.5695 112.2 88.3495 112.3 85.1495 112.08C84.6995 112.05 84.0295 110.47 84.0195 109.6C83.9195 103.63 84.0195 97.6504 83.9495 91.6704C83.8595 84.2904 83.6595 76.9004 83.5195 69.5204C83.5195 69.1504 83.5595 68.7904 83.5995 68.1504L83.6195 68.1604Z" fill="#D75D10"/>
</g>
<defs>
<clipPath id="clip0_105_152">
<rect width="321.99" height="239.03" fill="white"/>
</clipPath>
</defs>
</svg>
